<mxfile host="app.diagrams.net" modified="2021-06-11T08:34:05.385Z" agent="5.0 (Macintosh; Intel Mac OS X 10_15_7) AppleWebKit/537.36 (KHTML, like Gecko) Chrome/91.0.4472.77 Safari/537.36" etag="fjcv3sbvxbEdywtkhS78" version="14.7.2" type="github">
  <diagram id="PI9s6f7drBD2_VOT-f_g" name="Page-1">
    <mxGraphModel dx="1781" dy="961" grid="1" gridSize="10" guides="1" tooltips="1" connect="1" arrows="1" fold="1" page="1" pageScale="1" pageWidth="827" pageHeight="1169" math="0" shadow="0">
      <root>
        <mxCell id="0" />
        <mxCell id="1" parent="0" />
        <mxCell id="8jjJUCMmg5ojy8icsZEH-13" style="edgeStyle=orthogonalEdgeStyle;rounded=0;orthogonalLoop=1;jettySize=auto;html=1;exitX=0.5;exitY=1;exitDx=0;exitDy=0;entryX=0;entryY=0.5;entryDx=0;entryDy=0;" edge="1" parent="1" source="8jjJUCMmg5ojy8icsZEH-1" target="8jjJUCMmg5ojy8icsZEH-3">
          <mxGeometry relative="1" as="geometry" />
        </mxCell>
        <mxCell id="8jjJUCMmg5ojy8icsZEH-1" value="" style="rounded=0;whiteSpace=wrap;html=1;" vertex="1" parent="1">
          <mxGeometry x="10" y="100" width="310" height="410" as="geometry" />
        </mxCell>
        <mxCell id="8jjJUCMmg5ojy8icsZEH-14" style="edgeStyle=orthogonalEdgeStyle;rounded=0;orthogonalLoop=1;jettySize=auto;html=1;exitX=1;exitY=0.5;exitDx=0;exitDy=0;" edge="1" parent="1" source="8jjJUCMmg5ojy8icsZEH-3" target="8jjJUCMmg5ojy8icsZEH-4">
          <mxGeometry relative="1" as="geometry" />
        </mxCell>
        <mxCell id="8jjJUCMmg5ojy8icsZEH-3" value="" style="rounded=0;whiteSpace=wrap;html=1;" vertex="1" parent="1">
          <mxGeometry x="350" y="370" width="310" height="410" as="geometry" />
        </mxCell>
        <mxCell id="8jjJUCMmg5ojy8icsZEH-15" style="edgeStyle=orthogonalEdgeStyle;rounded=0;orthogonalLoop=1;jettySize=auto;html=1;exitX=1;exitY=0.5;exitDx=0;exitDy=0;entryX=0;entryY=0.5;entryDx=0;entryDy=0;" edge="1" parent="1" source="8jjJUCMmg5ojy8icsZEH-4">
          <mxGeometry relative="1" as="geometry">
            <mxPoint x="1140" y="575" as="targetPoint" />
          </mxGeometry>
        </mxCell>
        <mxCell id="8jjJUCMmg5ojy8icsZEH-16" style="edgeStyle=orthogonalEdgeStyle;rounded=0;orthogonalLoop=1;jettySize=auto;html=1;exitX=0.5;exitY=1;exitDx=0;exitDy=0;entryX=0.5;entryY=0;entryDx=0;entryDy=0;" edge="1" parent="1" source="8jjJUCMmg5ojy8icsZEH-4" target="8jjJUCMmg5ojy8icsZEH-6">
          <mxGeometry relative="1" as="geometry" />
        </mxCell>
        <mxCell id="8jjJUCMmg5ojy8icsZEH-4" value="" style="rounded=0;whiteSpace=wrap;html=1;" vertex="1" parent="1">
          <mxGeometry x="790" y="370" width="310" height="410" as="geometry" />
        </mxCell>
        <mxCell id="8jjJUCMmg5ojy8icsZEH-18" style="edgeStyle=orthogonalEdgeStyle;rounded=0;orthogonalLoop=1;jettySize=auto;html=1;exitX=0.75;exitY=1;exitDx=0;exitDy=0;entryX=0;entryY=0.25;entryDx=0;entryDy=0;" edge="1" parent="1" source="8jjJUCMmg5ojy8icsZEH-5" target="8jjJUCMmg5ojy8icsZEH-7">
          <mxGeometry relative="1" as="geometry" />
        </mxCell>
        <mxCell id="8jjJUCMmg5ojy8icsZEH-5" value="" style="rounded=0;whiteSpace=wrap;html=1;" vertex="1" parent="1">
          <mxGeometry x="1140" y="370" width="310" height="410" as="geometry" />
        </mxCell>
        <mxCell id="8jjJUCMmg5ojy8icsZEH-17" style="edgeStyle=orthogonalEdgeStyle;rounded=0;orthogonalLoop=1;jettySize=auto;html=1;exitX=1;exitY=0.25;exitDx=0;exitDy=0;entryX=0.25;entryY=1;entryDx=0;entryDy=0;" edge="1" parent="1" source="8jjJUCMmg5ojy8icsZEH-6" target="8jjJUCMmg5ojy8icsZEH-5">
          <mxGeometry relative="1" as="geometry" />
        </mxCell>
        <mxCell id="8jjJUCMmg5ojy8icsZEH-6" value="" style="rounded=0;whiteSpace=wrap;html=1;" vertex="1" parent="1">
          <mxGeometry x="790" y="830" width="310" height="410" as="geometry" />
        </mxCell>
        <mxCell id="8jjJUCMmg5ojy8icsZEH-19" style="edgeStyle=orthogonalEdgeStyle;rounded=0;orthogonalLoop=1;jettySize=auto;html=1;exitX=0;exitY=0.5;exitDx=0;exitDy=0;entryX=1;entryY=0.5;entryDx=0;entryDy=0;" edge="1" parent="1" source="8jjJUCMmg5ojy8icsZEH-7" target="8jjJUCMmg5ojy8icsZEH-6">
          <mxGeometry relative="1" as="geometry" />
        </mxCell>
        <mxCell id="8jjJUCMmg5ojy8icsZEH-7" value="" style="rounded=0;whiteSpace=wrap;html=1;" vertex="1" parent="1">
          <mxGeometry x="1480" y="830" width="310" height="410" as="geometry" />
        </mxCell>
        <mxCell id="8jjJUCMmg5ojy8icsZEH-8" value="Trace日志" style="text;html=1;align=center;verticalAlign=middle;resizable=0;points=[];autosize=1;strokeColor=none;" vertex="1" parent="1">
          <mxGeometry x="130" y="110" width="70" height="20" as="geometry" />
        </mxCell>
        <mxCell id="8jjJUCMmg5ojy8icsZEH-9" value="单笔串联服务" style="text;html=1;align=center;verticalAlign=middle;resizable=0;points=[];autosize=1;strokeColor=none;" vertex="1" parent="1">
          <mxGeometry x="110" y="590" width="90" height="20" as="geometry" />
        </mxCell>
        <mxCell id="8jjJUCMmg5ojy8icsZEH-10" value="链路串联" style="text;html=1;align=center;verticalAlign=middle;resizable=0;points=[];autosize=1;strokeColor=none;" vertex="1" parent="1">
          <mxGeometry x="700" y="590" width="60" height="20" as="geometry" />
        </mxCell>
        <mxCell id="8jjJUCMmg5ojy8icsZEH-11" value="服务决策" style="text;html=1;align=center;verticalAlign=middle;resizable=0;points=[];autosize=1;strokeColor=none;" vertex="1" parent="1">
          <mxGeometry x="1270" y="380" width="60" height="20" as="geometry" />
        </mxCell>
        <mxCell id="8jjJUCMmg5ojy8icsZEH-12" value="数据汇总(rmc产品层)" style="text;html=1;align=center;verticalAlign=middle;resizable=0;points=[];autosize=1;strokeColor=none;" vertex="1" parent="1">
          <mxGeometry x="1480" y="840" width="130" height="20" as="geometry" />
        </mxCell>
        <mxCell id="8jjJUCMmg5ojy8icsZEH-20" value="算法计算(irlab)" style="text;html=1;align=center;verticalAlign=middle;resizable=0;points=[];autosize=1;strokeColor=none;" vertex="1" parent="1">
          <mxGeometry x="795" y="840" width="90" height="20" as="geometry" />
        </mxCell>
        <mxCell id="8jjJUCMmg5ojy8icsZEH-24" value="" style="ellipse;whiteSpace=wrap;html=1;aspect=fixed;" vertex="1" parent="1">
          <mxGeometry x="700" y="90" width="30" height="30" as="geometry" />
        </mxCell>
        <mxCell id="8jjJUCMmg5ojy8icsZEH-25" value="" style="ellipse;whiteSpace=wrap;html=1;aspect=fixed;" vertex="1" parent="1">
          <mxGeometry x="710" y="100" width="30" height="30" as="geometry" />
        </mxCell>
        <mxCell id="8jjJUCMmg5ojy8icsZEH-26" value="" style="ellipse;whiteSpace=wrap;html=1;aspect=fixed;" vertex="1" parent="1">
          <mxGeometry x="720" y="110" width="30" height="30" as="geometry" />
        </mxCell>
        <mxCell id="8jjJUCMmg5ojy8icsZEH-27" value="" style="ellipse;whiteSpace=wrap;html=1;aspect=fixed;" vertex="1" parent="1">
          <mxGeometry x="730" y="120" width="30" height="30" as="geometry" />
        </mxCell>
        <mxCell id="8jjJUCMmg5ojy8icsZEH-28" value="" style="ellipse;whiteSpace=wrap;html=1;aspect=fixed;" vertex="1" parent="1">
          <mxGeometry x="740" y="130" width="30" height="30" as="geometry" />
        </mxCell>
        <mxCell id="8jjJUCMmg5ojy8icsZEH-29" value="" style="ellipse;whiteSpace=wrap;html=1;aspect=fixed;" vertex="1" parent="1">
          <mxGeometry x="750" y="140" width="30" height="30" as="geometry" />
        </mxCell>
        <mxCell id="8jjJUCMmg5ojy8icsZEH-30" value="" style="ellipse;whiteSpace=wrap;html=1;aspect=fixed;" vertex="1" parent="1">
          <mxGeometry x="760" y="150" width="30" height="30" as="geometry" />
        </mxCell>
        <mxCell id="8jjJUCMmg5ojy8icsZEH-31" value="" style="ellipse;whiteSpace=wrap;html=1;aspect=fixed;" vertex="1" parent="1">
          <mxGeometry x="770" y="160" width="30" height="30" as="geometry" />
        </mxCell>
        <mxCell id="8jjJUCMmg5ojy8icsZEH-32" value="" style="ellipse;whiteSpace=wrap;html=1;aspect=fixed;" vertex="1" parent="1">
          <mxGeometry x="780" y="170" width="30" height="30" as="geometry" />
        </mxCell>
        <mxCell id="8jjJUCMmg5ojy8icsZEH-33" value="" style="ellipse;whiteSpace=wrap;html=1;aspect=fixed;" vertex="1" parent="1">
          <mxGeometry x="790" y="180" width="30" height="30" as="geometry" />
        </mxCell>
      </root>
    </mxGraphModel>
  </diagram>
</mxfile>
